# xmcd CD database file
#
# Track frame offsets:
#	150
#	21222
#	50710
#	77635
#	104434
#	131806
#	157437
#	179377
#	203878
#	226603
#	251979
#	273644
#	303091
#	324970
#
# Disc length: 4373 seconds
#
# Revision: 0
# Processed by: cddbd v1.5.2PL0 Copyright (c) Steve Scherf et al.
# Submitted via: CDex 1.51
#
DISCID=c611130e
DTITLE=Jamey Aebersold Jazz - Vol 118 Groovin' Jazz - Joey Defrancesco Trio
DYEAR=1900
DGENRE=Jazz
TTITLE0=Big Easy (Blues in Ab)
TTITLE1=On Green Dolphin Street
TTITLE2=Falling In Love With Love
TTITLE3=I Can't Get Started
TTITLE4=Laura
TTITLE5='Round Midnight
TTITLE6=You're Lookin' Good (Blues in Bb)
TTITLE7=East of The Sun
TTITLE8=Time Out! (Rhythm Changes)
TTITLE9=I'm Getting Sentimental Over You
TTITLE10=How High The Moon
TTITLE11=Love For Sale
TTITLE12=Softly, As In A Morning Surnrise
TTITLE13=Tuning Notes (Concert Bb and A)
EXTD=
EXTT0=
EXTT1=
EXTT2=
EXTT3=
EXTT4=
EXTT5=
EXTT6=
EXTT7=
EXTT8=
EXTT9=
EXTT10=
EXTT11=
EXTT12=
EXTT13=
PLAYORDER=
